HIERARCHY
ROOT Hips
{
	OFFSET 0.000000 0.000000 0.000000
	CHANNELS 6 Xposition Yposition Zposition Zrotation Yrotation Xrotation 
	JOINT LHipJoint
	{
		OFFSET 0.000000 0.000000 0.000000
		CHANNELS 3 Zrotation Yrotation Xrotation
		JOINT LeftUpLeg
		{
			OFFSET 1.363060 -1.794630 0.839290
			CHANNELS 3 Zrotation Yrotation Xrotation
			JOINT LeftLeg
			{
				OFFSET 2.448110 -6.726130 0.000000
				CHANNELS 3 Zrotation Yrotation Xrotation
				JOINT LeftFoot
				{
					OFFSET 2.562200 -7.039590 0.000000
					CHANNELS 3 Zrotation Yrotation Xrotation
					JOINT LeftToeBase
					{
						OFFSET 0.157640 -0.433110 2.322550
						CHANNELS 3 Zrotation Yrotation Xrotation
						End Site
						{
							OFFSET 0.000000 0.000000 0.000000
						}
					}
				}
			}
		}
	}
	JOINT RHipJoint
	{
		OFFSET 0.000000 0.000000 0.000000
		CHANNELS 3 Zrotation Yrotation Xrotation
		JOINT RightUpLeg
		{
			OFFSET -1.305520 -1.794630 0.839290
			CHANNELS 3 Zrotation Yrotation Xrotation
			JOINT RightLeg
			{
				OFFSET -2.542530 -6.985550 0.000000
				CHANNELS 3 Zrotation Yrotation Xrotation
				JOINT RightFoot
				{
					OFFSET -2.568260 -7.056230 0.000000
					CHANNELS 3 Zrotation Yrotation Xrotation
					JOINT RightToeBase
					{
						OFFSET -0.164730 -0.452590 2.363150
						CHANNELS 3 Zrotation Yrotation Xrotation
						End Site
						{
							OFFSET 0.000000 0.000000 0.000000
						}
					}
				}
			}
		}
	}
	JOINT LowerBack
	{
		OFFSET 0.000000 0.000000 0.000000
		CHANNELS 3 Zrotation Yrotation Xrotation
		JOINT Spine
		{
			OFFSET 0.028270 2.035590 -0.193380
			CHANNELS 3 Zrotation Yrotation Xrotation
			JOINT Spine1
			{
				OFFSET 0.056720 2.048850 -0.042750
				CHANNELS 3 Zrotation Yrotation Xrotation
				JOINT Neck
				{
					OFFSET 0.000000 0.000000 0.000000
					CHANNELS 3 Zrotation Yrotation Xrotation
					JOINT Neck1
					{
						OFFSET -0.054170 1.746240 0.172020
						CHANNELS 3 Zrotation Yrotation Xrotation
						JOINT Head
						{
							OFFSET 0.104070 1.761360 -0.123970
							CHANNELS 3 Zrotation Yrotation Xrotation
							End Site
							{
								OFFSET 0.000000 0.000000 0.000000
							}
						}
					}
				}
				JOINT LeftShoulder
				{
					OFFSET 0.000000 0.000000 0.000000
					CHANNELS 3 Zrotation Yrotation Xrotation
					JOINT LeftArm
					{
						OFFSET 3.362410 1.200890 -0.311210
						CHANNELS 3 Zrotation Yrotation Xrotation
						JOINT LeftForeArm
						{
							OFFSET 4.983000 -0.000000 -0.000000
							CHANNELS 3 Zrotation Yrotation Xrotation
							JOINT LeftHand
							{
								OFFSET 3.483560 -0.000000 -0.000000
								CHANNELS 3 Zrotation Yrotation Xrotation
								JOINT LeftFingerBase
								{
									OFFSET 0.000000 0.000000 0.000000
									CHANNELS 3 Zrotation Yrotation Xrotation
									JOINT LeftHandIndex1
									{
										OFFSET 0.715260 -0.000000 -0.000000
										CHANNELS 3 Zrotation Yrotation Xrotation
										End Site
										{
											OFFSET 0.000000 0.000000 0.000000
										}
									}
								}
								JOINT LThumb
								{
									OFFSET 0.000000 0.000000 0.000000
									CHANNELS 3 Zrotation Yrotation Xrotation
									End Site
									{
										OFFSET 0.000000 0.000000 0.000000
									}
								}
							}
						}
					}
				}
				JOINT RightShoulder
				{
					OFFSET 0.000000 0.000000 0.000000
					CHANNELS 3 Zrotation Yrotation Xrotation
					JOINT RightArm
					{
						OFFSET -3.136600 1.374050 -0.404650
						CHANNELS 3 Zrotation Yrotation Xrotation
						JOINT RightForeArm
						{
							OFFSET -5.241900 -0.000000 -0.000000
							CHANNELS 3 Zrotation Yrotation Xrotation
							JOINT RightHand
							{
								OFFSET -3.444170 -0.000000 -0.000000
								CHANNELS 3 Zrotation Yrotation Xrotation
								JOINT RightFingerBase
								{
									OFFSET 0.000000 0.000000 0.000000
									CHANNELS 3 Zrotation Yrotation Xrotation
									JOINT RightHandIndex1
									{
										OFFSET -0.622530 -0.000000 -0.000000
										CHANNELS 3 Zrotation Yrotation Xrotation
										End Site
										{
											OFFSET 0.000000 0.000000 0.000000
										}
									}
								}
								JOINT RThumb
								{
									OFFSET 0.000000 0.000000 0.000000
									CHANNELS 3 Zrotation Yrotation Xrotation
									End Site
									{
										OFFSET 0.000000 0.000000 0.000000
									}
								}
							}
						}
					}
				}
			}
		}
	}
}
MOTION
Frames: 11
Frame Time: 0.016667
-0.574637 18.126382 23.989004 -0.187766 -2.010195 -4.626169 -37.379629 -7.811524 2.720703 20.020868 -2.194002 -19.891827 2.334946 8.579519 16.648504 2.252783 13.248768 36.385602 0.000000 0.000000 0.000000 -0.188143 -21.347080 -26.181129 12.660151 -18.810672 -10.948978 25.258228 -28.199927 75.387226 65.648187 -74.326310 -31.803688 0.000000 0.000000 0.000000 29.553282 5.550071 20.498589 0.227830 0.689494 33.868722 -35.427870 -3.284167 -17.699068 -15.352507 4.807682 -6.466386 15.733939 1.227800 3.133182 0.000000 0.000000 0.000000 -10.782746 -2.628423 3.829853 -84.318109 -20.572753 -1.671037 12.673717 -11.328182 -0.059692 -5.967569 0.418270 -0.029907 -5.967830 0.417432 0.000000 0.000000 0.000000 0.000000 0.000000 0.000000 0.000000 -10.633244 -10.056434 0.363213 79.678399 23.737410 2.769500 -1.700261 56.283885 -0.034707 -1.513250 1.914263 -0.017412 -1.515548 1.913669 0.000000 0.000000 0.000000 0.000000 0.000000 0.000000 0.000000 
-0.905764 18.151443 24.164343 -0.793294 -0.856443 -6.037341 -32.979060 -5.452904 3.054268 15.906033 -3.758465 -19.150645 2.566961 7.392055 16.785251 2.314436 11.881911 35.235605 0.000000 0.000000 0.000000 1.028364 -20.396672 -27.225359 12.597388 -20.929320 -10.521028 20.393185 -31.287455 76.311076 69.361625 -69.932390 -38.691851 0.000000 0.000000 0.000000 23.422576 4.306850 18.306099 8.166839 -2.049207 40.781072 -38.925524 -4.026065 -20.933909 -19.094562 5.804942 -11.594797 18.778757 1.925832 2.069018 0.000000 0.000000 0.000000 -8.477216 -4.801460 3.710468 -87.888436 -21.539216 -1.228186 12.951675 -10.010113 -0.084821 -6.623120 0.158311 -0.042491 -6.623419 0.157670 -0.000000 0.000000 0.000000 0.000000 0.000000 0.000000 0.000000 -12.444308 -9.755890 -0.224416 81.582473 25.268914 2.110753 -2.436400 54.661497 -0.043794 -1.558916 1.750636 -0.021950 -1.561108 1.750000 0.000000 0.000000 0.000000 0.000000 0.000000 0.000000 0.000000 
-1.273702 18.173089 24.330325 -2.151520 1.001387 -7.478312 -27.153442 -2.996566 3.075988 10.638203 -5.724404 -17.561872 3.150134 5.504196 16.277944 2.344170 10.497477 34.732044 0.000000 0.000000 0.000000 1.801528 -18.798519 -28.281845 12.347030 -23.670443 -9.817729 15.341046 -34.128099 76.238866 70.548150 -68.548457 -47.251886 0.000000 0.000000 0.000000 15.575882 2.939616 16.868098 17.727253 -6.139341 45.927798 -42.565665 -4.209210 -23.999213 -22.881107 6.561354 -16.862327 21.428943 2.690698 1.152732 0.000000 0.000000 0.000000 -6.014935 -6.508908 3.333718 -91.117758 -22.528597 -0.710298 12.023073 -8.484248 -0.112613 -7.078013 -0.166849 -0.056405 -7.078348 -0.166997 -0.000000 0.000000 0.000000 0.000000 0.000000 0.000000 0.000000 -14.138013 -8.700006 -0.560221 82.550750 26.948552 1.547279 -2.967495 53.148013 -0.056447 -1.631417 1.607568 -0.028279 -1.633726 1.606841 0.000000 0.000000 0.000000 0.000000 0.000000 0.000000 0.000000 
-1.594635 18.195251 24.490953 -3.726146 3.519360 -8.888441 -21.612082 -1.168631 3.057808 5.371011 -7.472191 -15.083330 4.049341 3.212152 14.971163 2.284976 9.350723 34.943813 0.000000 0.000000 0.000000 2.205444 -16.795987 -29.860016 11.447605 -26.484533 -8.957482 9.678645 -38.874845 76.310951 71.173989 -64.896153 -55.044542 0.000000 0.000000 0.000000 8.147295 1.319122 16.473040 26.659699 -10.476475 47.866327 -45.875624 -3.644324 -25.623016 -26.538644 7.151467 -21.439107 23.672679 3.453827 0.263474 0.000000 0.000000 0.000000 -3.445183 -8.068318 3.050332 -93.774278 -23.415544 -0.260982 10.157732 -7.037481 -0.149106 -7.283670 -0.553401 -0.074666 -7.284127 -0.552759 -0.000000 0.000000 0.000000 0.000000 0.000000 0.000000 0.000000 -15.444359 -6.618839 -0.405310 82.448981 28.737173 0.790938 -3.554911 51.767505 -0.074934 -1.733354 1.450832 -0.037535 -1.736048 1.449951 0.000000 0.000000 0.000000 0.000000 0.000000 0.000000 0.000000 
-1.765976 18.217493 24.648539 -4.960799 5.149138 -10.006040 -17.957165 -0.006487 3.476994 1.592439 -8.394013 -12.695564 5.355665 1.140241 12.836527 2.129393 8.665929 35.158781 0.000000 0.000000 0.000000 1.582977 -15.346217 -31.364864 11.082412 -28.837883 -7.635193 5.535892 -42.558120 76.490305 71.531936 -61.241561 -60.475657 0.000000 0.000000 0.000000 3.812369 -0.170049 16.471037 32.833064 -13.605694 47.506729 -48.881996 -2.733223 -25.347622 -30.182187 7.631365 -24.751874 25.565975 4.198294 -0.938941 0.000000 0.000000 0.000000 -1.138147 -10.035099 3.096101 -95.514191 -24.247665 0.044046 7.257759 -5.888018 -0.195931 -7.198730 -0.998425 -0.098081 -7.199529 -0.996647 -0.000000 0.000000 0.000000 0.000000 0.000000 0.000000 0.000000 -16.357032 -4.011753 0.227182 81.336156 30.360079 -0.250836 -4.233966 50.484893 -0.101148 -1.865823 1.285224 -0.050667 -1.869279 1.284103 0.000000 0.000000 0.000000 0.000000 0.000000 0.000000 0.000000 
-1.812204 18.242108 24.800280 -5.303810 5.406253 -10.292199 -16.373590 0.621907 4.023682 -0.615673 -8.589079 -11.041362 6.825215 -0.334506 10.383477 2.003641 8.427530 35.176220 0.000000 0.000000 0.000000 0.750228 -15.308792 -32.209496 12.198822 -30.663253 -6.710920 5.905106 -41.040654 76.383283 71.697145 -65.101699 -62.885403 0.000000 0.000000 0.000000 2.634958 -0.310047 17.166722 35.986785 -14.840660 46.514836 -50.748814 -2.332977 -24.731118 -31.619727 8.115164 -25.562095 26.172020 4.647954 -1.956357 0.000000 0.000000 0.000000 -0.269008 -10.868158 3.161889 -96.838268 -24.888176 0.038837 3.335696 -5.386441 -0.234333 -6.854499 -1.073131 -0.117286 -6.855874 -1.070733 -0.000000 0.000000 0.000000 0.000000 0.000000 0.000000 0.000000 -17.397153 -3.559599 0.341420 80.380164 31.105704 -0.734101 -3.869655 49.479341 -0.121558 -1.956684 1.119079 -0.060887 -1.960637 1.117820 0.000000 0.000000 0.000000 0.000000 0.000000 0.000000 0.000000 
-1.846389 18.268975 24.944404 -5.366528 5.434709 -10.238292 -15.258872 0.974849 4.423228 -2.379646 -8.573456 -9.483509 8.238696 -1.694980 7.658900 1.988909 8.375067 35.556181 0.000000 0.000000 0.000000 0.348663 -15.161496 -32.353609 13.712872 -31.777838 -5.782129 10.953267 -37.423126 73.649506 72.551484 -73.359437 -63.579754 0.000000 0.000000 0.000000 1.772686 0.120074 17.803607 38.487497 -15.370958 45.219283 -52.266311 -1.836674 -24.158916 -33.020105 8.597281 -26.091173 26.729878 5.049062 -2.891747 0.000000 0.000000 0.000000 0.068837 -11.481709 3.526975 -97.475820 -25.284959 -0.273524 -1.060553 -5.367829 -0.255000 -6.240299 -0.935841 -0.127614 -6.242287 -0.933303 -0.000000 0.000000 0.000000 0.000000 0.000000 0.000000 0.000000 -17.643320 -3.443567 0.431845 78.925830 31.330031 -1.142775 -3.486761 48.645593 -0.142981 -2.051681 0.935548 -0.071614 -2.056139 0.934167 0.000000 0.000000 0.000000 0.000000 0.000000 0.000000 0.000000 
-1.868521 18.298303 25.083544 -5.462133 5.604413 -10.074699 -14.669857 0.798396 4.576433 -3.327271 -8.453475 -8.173121 9.464678 -2.824769 5.124495 2.025981 8.386031 36.054338 0.000000 0.000000 0.000000 -0.280123 -14.962052 -31.501589 15.377255 -33.362354 -3.150029 17.888363 -31.265072 64.916695 74.149724 -83.021670 -63.207986 0.000000 0.000000 0.000000 1.517323 0.987617 18.261555 40.407727 -15.224910 43.779555 -53.406781 -1.322293 -23.800677 -34.035378 9.058070 -26.385486 27.174821 5.351230 -3.564555 0.000000 0.000000 0.000000 -0.359935 -11.604437 4.262514 -97.252648 -25.123301 -0.873734 -6.167804 -6.229001 -0.242355 -5.320851 -0.432398 -0.121270 -5.323190 -0.430242 -0.000000 0.000000 0.000000 0.000000 0.000000 0.000000 0.000000 -17.183192 -3.935599 0.547758 77.363998 30.745305 -1.373925 -3.041308 47.998326 -0.162700 -2.145264 0.793368 -0.081490 -2.150240 0.791880 0.000000 0.000000 0.000000 0.000000 0.000000 0.000000 0.000000 
-1.878070 18.330266 25.218016 -5.584284 6.135848 -8.534025 -14.734651 -0.462113 3.446760 -3.407577 -8.450794 -7.798891 10.453961 -3.614172 3.011205 2.136297 8.472237 36.475258 0.000000 0.000000 0.000000 -0.314580 -14.040504 -25.514685 12.951134 -37.272950 2.179556 28.518540 -19.630927 50.017086 -105.061870 -89.995565 118.155389 0.000000 0.000000 0.000000 1.592934 2.020843 16.863357 41.822526 -14.236891 41.979333 -54.185203 -0.630965 -23.824324 -34.610252 9.490973 -26.576095 27.569328 5.555627 -3.979759 0.000000 0.000000 0.000000 -1.630850 -11.132506 5.294555 -96.008738 -24.222446 -1.590931 -11.955849 -7.624453 -0.197253 -4.104223 0.336088 -0.098681 -4.106363 0.337676 -0.000000 0.000000 0.000000 0.000000 0.000000 0.000000 0.000000 -15.916488 -4.971906 0.703545 75.645780 29.374097 -1.374379 -2.457928 47.535880 -0.181499 -2.234404 0.685411 -0.090907 -2.239940 0.683816 0.000000 0.000000 0.000000 0.000000 0.000000 0.000000 0.000000 
-1.873482 18.366960 25.354541 -4.580897 9.202555 -4.190514 -16.356965 -2.661722 1.280836 -3.479972 -8.730162 -8.233462 11.106426 -4.217450 1.604666 2.073849 8.445424 36.888347 0.000000 0.000000 0.000000 4.931762 -10.945277 -13.608680 5.682830 -36.354056 2.710458 31.363819 -9.704789 47.817259 72.484232 -86.982003 -60.604722 0.000000 0.000000 0.000000 0.974249 2.033877 12.899811 42.684062 -13.478084 39.508843 -54.441955 -0.394586 -24.045418 -34.800193 9.835077 -26.780424 27.894552 5.673394 -4.075070 0.000000 0.000000 0.000000 -3.252641 -10.406319 6.348495 -94.132921 -22.782806 -1.990698 -17.432412 -8.980785 -0.134503 -2.865642 1.058192 -0.067269 -2.866934 1.059368 -0.000000 0.000000 0.000000 0.000000 0.000000 0.000000 0.000000 -14.331195 -6.518812 1.048805 74.252029 27.379727 -1.097792 -1.601628 47.539752 -0.201212 -2.348564 0.656639 -0.100790 -2.354843 0.654879 0.000000 0.000000 0.000000 0.000000 0.000000 0.000000 0.000000 
-1.853525 18.409014 25.494226 -3.318480 10.913267 -1.935570 -18.062431 -3.474373 1.062505 -3.309883 -8.742434 -8.640791 11.411578 -4.440086 0.829891 1.973200 8.465107 36.912513 0.000000 0.000000 0.000000 9.813983 -8.472237 -7.931788 5.139921 -31.870216 2.048216 25.565024 -3.376731 50.556805 76.205199 -80.434707 -50.730411 0.000000 0.000000 0.000000 0.289718 1.830363 10.808576 42.539225 -13.309309 38.445953 -54.132758 -0.531824 -23.841234 -34.636369 9.900778 -27.322856 27.914967 5.642460 -3.840402 0.000000 0.000000 0.000000 -3.877196 -10.427029 6.852438 -93.043044 -22.415931 -2.380355 -20.608051 -8.697895 -0.111119 -2.183022 1.106984 -0.055571 -2.184016 1.107888 -0.000000 0.000000 0.000000 0.000000 0.000000 0.000000 0.000000 -13.718562 -6.995061 1.518109 73.885836 26.450497 -1.049006 -1.412943 47.392119 -0.210883 -2.447024 0.800079 -0.105649 -2.453937 0.798131 0.000000 0.000000 0.000000 0.000000 0.000000 0.000000 0.000000 
